<?xml version="1.0" encoding="UTF-8"?>
<svg width="96px" height="96px" viewBox="0 0 96 96" version="1.1" xmlns="http://www.w3.org/2000/svg" xmlns:xlink="http://www.w3.org/1999/xlink">
    <!-- Generator: Sketch 55.2 (78181) - https://sketchapp.com -->
    <title>ic / launcher</title>
    <desc>Created with Sketch.</desc>
    <g id="app" stroke="none" stroke-width="1" fill="none" fill-rule="evenodd">
        <g id="splash" transform="translate(-140.000000, -286.000000)">
            <g id="ic-/-launcher" transform="translate(140.000000, 286.000000)">
                <g id="launcher">
                    <g id="Group">
                        <path d="M24.6132979,8.19261583e-16 L71.3867021,9.94406695e-16 C79.945282,-5.77778927e-16 83.0488299,0.891125867 86.1777188,2.56447396 C89.3066076,4.23782205 91.762178,6.69339236 93.435526,9.82228125 C95.1088741,12.9511701 96,16.054718 96,24.6132979 L96,71.3867021 C96,79.945282 95.1088741,83.0488299 93.435526,86.1777188 C91.762178,89.3066076 89.3066076,91.762178 86.1777188,93.435526 C83.0488299,95.1088741 79.945282,96 71.3867021,96 L24.6132979,96 C16.054718,96 12.9511701,95.1088741 9.82228125,93.435526 C6.69339236,91.762178 4.23782205,89.3066076 2.56447396,86.1777188 C0.891125867,83.0488299 -6.68607548e-16,79.945282 1.15073048e-15,71.3867021 L6.62937797e-16,24.6132979 C-3.85185951e-16,16.054718 0.891125867,12.9511701 2.56447396,9.82228125 C4.23782205,6.69339236 6.69339236,4.23782205 9.82228125,2.56447396 C12.9511701,0.891125867 16.054718,-4.76014573e-16 24.6132979,8.19261583e-16 Z" id="Smooth-Corners" fill="#327DE1"></path>
                        <path d="M52.5309498,17.4397138 C54.022693,17.4397138 55.420088,17.8426133 56.6202844,18.5455619 C57.8204807,19.2485106 58.8234785,20.2515083 59.5264271,21.4517047 C60.2293757,22.651901 60.6322753,24.049296 60.6322753,25.5410392 L60.6322753,74.1977522 C60.6322753,75.6894954 60.2293757,77.0868904 59.5264271,78.2870868 C58.8234785,79.4872832 57.8204807,80.4902809 56.6202844,81.1932295 C55.420088,81.8961782 54.022693,82.2990777 52.5309498,82.2990777 C51.0392066,82.2990777 49.6418116,81.8961782 48.4416152,81.1932295 C47.2414189,80.4902809 46.2384211,79.4872832 45.5354725,78.2870868 C44.8325239,77.0868904 44.4296243,75.6894954 44.4296243,74.1977522 L44.4296243,25.5410392 C44.4296243,24.049296 44.8325239,22.651901 45.5354725,21.4517047 C46.2384211,20.2515083 47.2414189,19.2485106 48.4416152,18.5455619 C49.6418116,17.8426133 51.0392066,17.4397138 52.5309498,17.4397138 Z" id="Rectangle-2" fill-opacity="0.78" fill="#FFFFFF" transform="translate(52.530950, 49.869396) rotate(45.000000) translate(-52.530950, -49.869396) "></path>
                        <path d="M29.6308232,45.1177293 C31.1225664,45.1177293 32.5199614,45.5206289 33.7201578,46.2235775 C34.9203541,46.9265261 35.9233519,47.9295239 36.6263005,49.1297202 C37.3292491,50.3299166 37.7321487,51.7273116 37.7321487,53.2190548 L37.7321487,69.4460858 C37.7321487,70.937829 37.3292491,72.335224 36.6263005,73.5354204 C35.9233519,74.7356168 34.9203541,75.7386145 33.7201578,76.4415631 C32.5199614,77.1445118 31.1225664,77.5474113 29.6308232,77.5474113 C28.13908,77.5474113 26.741685,77.1445118 25.5414886,76.4415631 C24.3412922,75.7386145 23.3382945,74.7356168 22.6353459,73.5354204 C21.9323973,72.335224 21.5294977,70.937829 21.5294977,69.4460858 L21.5294977,53.2190548 C21.5294977,51.7273116 21.9323973,50.3299166 22.6353459,49.1297202 C23.3382945,47.9295239 24.3412922,46.9265261 25.5414886,46.2235775 C26.741685,45.5206289 28.13908,45.1177293 29.6308232,45.1177293 Z" id="Rectangle-2-Copy" fill-opacity="0.78" fill="#FFFFFF" transform="translate(29.630823, 61.332570) rotate(-45.000000) translate(-29.630823, -61.332570) "></path>
                    </g>
                </g>
            </g>
        </g>
    </g>
</svg>