<?xml version="1.0" encoding="UTF-8"?>
<svg width="96px" height="96px" viewBox="0 0 96 96" version="1.1" xmlns="http://www.w3.org/2000/svg" xmlns:xlink="http://www.w3.org/1999/xlink">
    <!-- Generator: Sketch 55.2 (78181) - https://sketchapp.com -->
    <title>ic / launcher</title>
    <desc>Created with Sketch.</desc>
    <g id="app" stroke="none" stroke-width="1" fill="none" fill-rule="evenodd">
        <g id="splash" transform="translate(-140.000000, -286.000000)">
            <g id="ic-/-launcher" transform="translate(140.000000, 286.000000)">
                <g id="launcher">
                    <path d="M27.4015231,0 L68.5984769,0 C78.1265835,-6.43230446e-16 81.5817051,0.992073719 85.0650385,2.85498077 C88.5483718,4.71788782 91.2821122,7.45162821 93.1450192,10.9349615 C95.0079263,14.4182949 96,17.8734165 96,27.4015231 L96,68.5984769 C96,78.1265835 95.0079263,81.5817051 93.1450192,85.0650385 C91.2821122,88.5483718 88.5483718,91.2821122 85.0650385,93.1450192 C81.5817051,95.0079263 78.1265835,96 68.5984769,96 L27.4015231,96 C17.8734165,96 14.4182949,95.0079263 10.9349615,93.1450192 C7.45162821,91.2821122 4.71788782,88.5483718 2.85498077,85.0650385 C0.992073719,81.5817051 4.28820297e-16,78.1265835 -7.38036219e-16,68.5984769 L0,27.4015231 C-4.28820297e-16,17.8734165 0.992073719,14.4182949 2.85498077,10.9349615 C4.71788782,7.45162821 7.45162821,4.71788782 10.9349615,2.85498077 C14.4182949,0.992073719 17.8734165,6.43230446e-16 27.4015231,-1.10705433e-15 Z" id="Combined-Shape" fill="#327DE1"></path>
                    <g id="Group" stroke-width="1" transform="translate(12.420000, 21.180000)" fill="#FFFFFF" fill-opacity="0.78">
                        <path d="M40.1109498,-3.74028624 C41.602693,-3.74028624 43.000088,-3.3373867 44.2002844,-2.63443806 C45.4004807,-1.93148943 46.4034785,-0.928491704 47.1064271,0.271704663 C47.8093757,1.47190103 48.2122753,2.86929604 48.2122753,4.36103924 L48.2122753,53.0177522 C48.2122753,54.5094954 47.8093757,55.9068904 47.1064271,57.1070868 C46.4034785,58.3072832 45.4004807,59.3102809 44.2002844,60.0132295 C43.000088,60.7161782 41.602693,61.1190777 40.1109498,61.1190777 C38.6192066,61.1190777 37.2218116,60.7161782 36.0216152,60.0132295 C34.8214189,59.3102809 33.8184211,58.3072832 33.1154725,57.1070868 C32.4125239,55.9068904 32.0096243,54.5094954 32.0096243,53.0177522 L32.0096243,4.36103924 C32.0096243,2.86929604 32.4125239,1.47190103 33.1154725,0.271704663 C33.8184211,-0.928491704 34.8214189,-1.93148943 36.0216152,-2.63443806 C37.2218116,-3.3373867 38.6192066,-3.74028624 40.1109498,-3.74028624 Z" id="Rectangle-2" transform="translate(40.110950, 28.689396) rotate(45.000000) translate(-40.110950, -28.689396) "></path>
                        <path d="M17.2108232,23.9377293 C18.7025664,23.9377293 20.0999614,24.3406289 21.3001578,25.0435775 C22.5003541,25.7465261 23.5033519,26.7495239 24.2063005,27.9497202 C24.9092491,29.1499166 25.3121487,30.5473116 25.3121487,32.0390548 L25.3121487,48.2660858 C25.3121487,49.757829 24.9092491,51.155224 24.2063005,52.3554204 C23.5033519,53.5556168 22.5003541,54.5586145 21.3001578,55.2615631 C20.0999614,55.9645118 18.7025664,56.3674113 17.2108232,56.3674113 C15.71908,56.3674113 14.321685,55.9645118 13.1214886,55.2615631 C11.9212922,54.5586145 10.9182945,53.5556168 10.2153459,52.3554204 C9.51239725,51.155224 9.10949771,49.757829 9.10949771,48.2660858 L9.10949771,32.0390548 C9.10949771,30.5473116 9.51239725,29.1499166 10.2153459,27.9497202 C10.9182945,26.7495239 11.9212922,25.7465261 13.1214886,25.0435775 C14.321685,24.3406289 15.71908,23.9377293 17.2108232,23.9377293 Z" id="Rectangle-2-Copy" transform="translate(17.210823, 40.152570) rotate(-45.000000) translate(-17.210823, -40.152570) "></path>
                    </g>
                </g>
            </g>
        </g>
    </g>
</svg>